<?xml version="1.0" encoding="UTF-8"?>
<svg xmlns="http://www.w3.org/2000/svg" viewBox="0 0 959 593">
  <path id="AK" d="M161.1,453.7l-.1,1.6l-1,1.2l-.3,1.4l1.1,1.4l1.7,.3l.8,1.8l2.2,.1l1.3-1.5l.8,.2l.4,2.1l1.3-.9l.3-1.7l.7-.1l1.6,1.5l-.3,1.7l-.9,.7l.2,1.1l1.7-.3l2.3-2.2l1.3.7l.5,1.5l.8-1.1l1.5.5l-.2,3l-1,.6l.7,.5l-.2,1.1l-1.9,1.1l-1.5,.1l-.8-.7l-1.8,.5l-.8,.7l-1-.4l-.9,.3l-1.2-.3l-.8,.5l-1.9-.4l-1.4-1.6l-1.5,.3l-.9-1.1l-2.2.1l-1.3,1l-1.6-.3l-.2-.8l.9-.5l-.1-.7l-1.3.2l-.7-.3l.4-1.4l1.5-.1l.4-1.2l.8-.5l.1-1l-1.2-.1l-.5-1.9l-1.9-.6l-.3-2l1.7-.4l.3-1.9l.5-.2l-.1-1.9l.8.3l1.2-1.4l1.5.8l1.2-.3l.7,1l1.2-.3l-.2-1.4l1.7-.3l.1-1l-.9-1.7l-1.9-.1l-.5-1.5l.8-1.2l-1.7-1.6l-.1-1l1.7.2l-.2-2l1,.1l.3,1.5l1.4.3zm-52.1-8.4l1.4,2l2,.5l2.7-1l2.6,1.4l-.2,1.3l-1.2.4l-.9,1.5l-2,.3l-.5,1.2l-2.7.5l-2.8,2.2l-2,2.7l-.3,1.5l1.5,2l-.5,1.4l-2.8.7l-1.6,1.7l-.7,1.7l-3.2.6l-1.1-.4l-.8.7l-1.4-.2l-1.9.5l-2.7-.4l-2.7-.1l-1.4,1.1l-2.3-1.2l-.3-1.6l-2.6-.3l-2.1.3l-2.4,1l-1.9,1.5l-.5-1.2l1.2-1.5l2.7-1.1l2.5.3l1.5-.8l1.6.3l1.2-.7l1.4.3l.9-2.3l2.2-.2l2.7-.3l1.4.4l-.2,1.3l1.9.5l1.1-1l3.2.2l-1-1.2l-.1-2l2.5-1.4l.8-2.6l1.9-2.5l2-1.1l.3-1.3l1.9-1l2.1,1zm30.5,13.8l.6,2.2l-1.7-.4l-.6-1.7l1.7-.1zm-24.4,1.8l1.3,1.4l-1.3,1l-1.3-1.6l1.3-.8zm56.6,3.6l-1.7.3l-.4-1.9l1.5-.9l1,1.2l-.4,1.3zm4.2,1.9l1.9.8l-.6,1l-2.3-.6l1-1.2zm-62.7,1l1.5.9l.2,1.1l-2.1-.5l.4-1.5zm4.3.6l.9,1.5l-1.2.2l-.9-1.5l1.2-.2zm-10.8,2.9l1.7.4l1.3,1.3l-1.9.3l-1.1-2zm9.7-.3l.3,1.9l-1.6-.5l-.2-1.2l1.5-.2zm6.4,3.9l1.5,1.7l-1.1.5l-1.1-1.5l.7-.7zm-20.3,1.1l.4,1.9l2-.1l1.9,2.3l2.4.3l.7,1.7l2.7,1.1l2.6-.4l1-1.1l.8,1.8l2.3-.3l1.1.5l2.4-.2l.8,1.5l1.6-.1l1.6,1.7l-.4,1.7l-1.9.3l-1.3-.8l-2.2.1l-3.3-1l-3.5-.5l-.8.4l-2.9-1.1l-1.2-1.9l-1.9-.4l-.3-2.2l-1-1.6l1.2-2.6zm46.4,4.5l.3,1l-1.5-.3l-.2-1.1l1.4.4zm-3.7,4.7l1.1.3l-.3.9l-1.2-.2l.4-1zm-45.5,8.6l2.7,3.6l2.9,1.6l3.7-1l1,.5l4.2-.3l3.1-.3l.7,2.5l2.8.7l3.1,2.4l3,1l3.9,4.5l3.3,1l1.6,1.9l-.3,3.1l.7,1.3l-.8.7l-3.1-2.6l-.5,1l2.6,2.2l-.7,1.5l-1.7-.9l-3.6-2.8l-1.9-2.5l-2.9-1.2l-1.5-2l-.5-2.1l-3.7-1.9l-3.6,1.2l-2.6-.2l-2.6-2.9l.1-1.9l1.2-1.9l-2.9-.5l-1.6-2.7l-2.3-.3l-1.9-2.9l.5-.7l-2.4-.6l-.9-1.8l1.6-.2l.8,1.2l1.9.5l-.1-1.4l-2.7-1.1l.5-2l2.2,2.7zm3.8,23l-.7,1.7l-.6-1.1l.6-.9l.7.3zm97.8-71.7l-3,3.3l-1.5-.1l-1.7,1.4l-3.1-.2l-3.9,2.9l.1,3.2l-1.7,1.9l.4,2.9l-2.5,2.9l-.9,4.7l-.4,3.4l.9,1.7l-.7,3.7l-2.4,2.9l-1.3,2.1l-2.7,1.3l-2.4,4.8l-3.8,3.5l-.8,3.1l-4.3,3l-1.4,1.9l.3,3.1l-1.9,1.2l-1.9,2l-.1,1.3l-2.9,1.9l-.8,3.2l-2.4,3.7l.4,1.7l-2.9,1.2l-1.1,3.9l-3.7,4.3l-1,.1l-2.1,2.9l.3,1.4l-2.1,3.4l.4,1.1l-2.9,3l-3.7,.3l-3.1,3l-2.2,1.3l-2.5-.1l-2.7-2.5l-1.8,.6l-3.7-.5l-5.8-3.2l-3.2-2.8l-1.9-2.5l-.2-1.4l-4.1-2.2l-3.9-.3l-2.6-2.2l1.9-3.5l2-1.1l.3-2.9l2.5-2.1l1.9.4l1.9-.9l1.5.9l1.8-.3l1,.6l.7-1.5l1.7-1.3l.5-1.4l2.9-1.6l.7,.1l1.3-1.9l-.7-1.2l1.2-1.9l1.7-.4l.5,1.5l1.6,.3l-.5-2.9l-1.7-.3l-.7-1.1l1.5-.8l-.5-2.4l.7-2.7l-1-1.6l.8-.6l-.7-3.7l2.2-.5l.2-2.1l1.4-.3l-.3-1.6l-1.7-.4l-.7-1.7l1.9-3.6l-.5-.6l.8-2.3l-.4-2.6l1.1-.9l.3-2.8l1.7-2l1.3.7l1.2-1.1l3.9,1.5l.9-1l3.6,1.1l3.7,1.7l1.6,1.9l2.7-1.5l2.7.9l.5-2.2l2.2-1.1l1.9,1.1l1.5,.1l1.9-1.3l-1.1-2.3l1-1.7l3.1,2l.5,2.9l1.1,.9l1.3,.2l3.5,3.2l1.4-.4l.3-1.7l5.4,2.7l-.6,2.2l1.4,1.2l.8-.4l.5-2.1l2.7-.1l1.9,.9l3.5-.5l1.4-1.7l1.7-.8l.9,.7l3.7-.8l.6-2.1l1.9-.1l.5-2.5l1.7,.5l2.6-.8l3.1-1.9l2.3,.3l2.4-2.4l3.1-.8l1.7,1l.3,1.7l2.2-.8l3.4-1l2.5,1.1l1.6,2l.1,1.8z"/>
  <path id="HI" d="M233.1,519.3l1.1-1.6l.4-1.9l-.2-1.7l.6-1.3l1.3,1l1.3,1.8l.3,1.7l-.6,1.8l-1.8.9l-1.2-.5l-1.2,1.8zm10.9,3.8l2.4,3l1,.3l.6-1.8l-.2-1.5l4.1.5l-1.3,1.9l-.4,1.7l.6,2.2l1.1,1.7l-.3,1.1l-3.1-1.3l-2.5.3l-2.6-.6l-.1-4.1l-1.9-2.2l.2-1.2l2.5.1zm12.3,5.3l.8,1.8l.7,2l-.4.9l-2.1-.2l-.7-1.9l-.5-2.3l2.2-.3zm5.9,4.3l.7,2.3l.1,1.3l-1.6.4l-1.5-1l-.2-2.2l.5-1.2l2,.4zm5.3,5l.3,1.6l-1.7-1l-.1-1.2l1.5.5zm9.5,3.5l-.5,1.2l-2.1.3l-2.7-.2l-1.5.5l-2-.3l-1.1.8l-2.3-1.3l2.2-1.3l1.5.7l2-.4l1.6.9l1.6-.5l1.9.3l1.4-.7zm5.5,1.7l-1.4,2.1l-3.2-1.5l-1-.1l.7-1.2l2.6-.2l2.3,1z"/>
  <path id="AL" d="M628.5,401l-1.6,9.5l-1.3,9l-.8,9.1l-.4,11.2l2.1,5.7l1.1,3.2l1.4,5.7l-7.8,1l-26.5,3l-10.4,1l.4-3.7l1.1-10.3l-.5-16.2l.2-5.9l.8-4l2.2-5.9l1.9-2.7l.3-3.7l1.1-3.3l-1.7-3.9l.7-1.1l37.7-3.6z"/>
  <path id="AR" d="M566.9,366.7l-3.7-1.3l.2-3.1l-2.5-3.7l.3-3.7l-4.3,.2l-41.3,1l-4.7,.1l1.6-4l-1.6-3.2l1.9-2.9l1.1-4l-1.3-4.5l2.5,.1l1.2-1.9l2.8,.6l1.7-1.9l1.7,.5l1.5-1.1l48.8,.1l1.1,2.3l-.6,3.7l2.5,4l-.4,2l-2.7,2.2l.1,2.9l2.1,2.9l-.5,10.7l-.5,3.4z"/>
  <path id="AZ" d="M137.5,385.5l-1.9,1.1l-1,.2l-1.9,3.9l-.4,3.8l.6,1.5l-1.9,3.1l-3.7,3.7l-1.8,0l-1.2,1.2l-1.7-.8l-3.6,1.1l-1.2-.9l-.8,.5l-2.7-1.6l-2.9,1.5l-.3-1.2l.7-2.4l-1.3-.1l.7-2.7l-1.2-.5l-.1-2.3l3.7-2.4l.1-1.9l-.6-.8l.6-2.7l1.6-1l-.1-1l-2.5-3.5l-.1-2.9l28.8,16.4l18,10.2l16.4,8.9l10.2,2.2l4.9,5.9l2.7,.3l1-2.4l3.7-1.8l2.1,.1l.2,1.5l-2.7,4.8l-.8,3.9l-.4,4.9l-.7,1.4l.3,2.1l-1.9,3.5l-3.7,3.1l-1.6,3.9l-.6,5l-2.1,2.5l-.4,1.4l-35.7-5l-24-3.9l-13.6-2.6l12-68.5z"/>
  <path id="CA" d="M137.5,385.5l-12,68.5l-12.9-2.2l-35.4-6.6l11.3-40l5.3-23.7l-3.4-4.7l-1.7-2.7l.9-2.5l-1.7-3l-.4-5l1.7-4.7l-1.2-4.7l-1.3-1.3l-1.3-4.6l.8-2.3l-1.9-3.4l-2.5-4.9l-2.7-2.1l-1.3-3.2l.3-5.3l-1.7-2.9l.4-2.4l-1.7-3.5l1.5-3.1l1.3-4.6l1.9-4.1l2-1.5l1.7-3.5l-1.3-3.6l-1.3-4l-.6-3.6l1.1-2.5l-.5-2.5l.8-3.9l2.3-4.2l.3-3.1l-1.1-1.9l.4-2.8l-.4-3.6l1.7-3.3l2.1-5.4l2.7-2.8l-.2-1.9l1.7-2.3l4.2,1.2l3.6,1.6l1.7,2.9l2.3,.4l2.1,1.3l3.2,3.6l2.3,.5l2.4,2.7l2.3,.7l.6,1.3l-.4,5l2.1,4.4l2.1,3.8l.3,.1l-.2,4.7l1.9,1.6l4.7,5.9l1.9,8.7l5.7,7.7l2.4,5.4l-3.4,6.2l.8,4.3l1.9,4.7l-.5,2.7l-3.8,5.7l-.2,4.2l1.9,3.7l6.7,6.5l2.9,5.4l3.6,1.2l2.9,3.2l7.9,.1l2.1,1.3l-.7,2.9l-1.5,8.9z"/>
  <path id="CO" d="M352.4,275.4l-3,40.7l-1.9,21.9l-49.4-4.3l-51.2-6l6.2-46.7l1.7-13.2l53,6.4l44.6,1.2z"/>
  <path id="CT" d="M852,193.6l-1,5.3l-1.6,5l1.3,3l-3.2,.9l-7.7,1.7l-10.9,2.8l-1.1-4.7l.8-4.4l-1.1-3.7l3.5-1.4l18.7-5.8l2.3,1.3z"/>
  <path id="DC" d="M761.6,269.8l-1.2-1.5l1.3-2.1l1.6,.6l.3,1.6l-2,1.4z"/>
  <path id="DE" d="M788.8,249.5l-.4,2.3l.6,4.2l1.7,5.5l2.1,4.5l2.6,1.7l1.1,3l-2.2,1.4l-2.9-2.1l-3.1,2l-1-2.7l-.2-3.2l-1-1.7l.2-3.9l-.8-4.2l-1.5-5.3l4.8-1.5z"/>
  <path id="FL" d="M686.9,433l-.1,2.1l1.3,4.7l3.5,4.4l2.5,4.5l3.9,4.9l2.1,1.7l1.4,3.6l4.6,4.7l.4,2l-.6,.8l.5,3.9l4.7,5.7l4.6,8.6l3.2,7.2l3.9,5.5l1,5l.3,6.9l-.9,2.5l1.5,5.5l1.1,2.7l-.3,2.5l-2.1,1.7l.3,2.2l-.7,2.5l-1.3,.6l-1.7,3.7l-2.9,.5l-1.9-1.9l-1.7-1l-1.7,.9l.1,2.1l-2.8,1.2l-2.6-1.1l-2.2-1.8l-4.3-5.7l-3.7-3.4l-4.9-7.2l-1.7-3.7l-1.2-5l-1.9-2.2l-.3-2.6l-3.1-2.8l-1.7-4.6l-4.2-3.7l-1.9-1.1l-1.2-2.9l-4.1-2.3l-.9-1.7l-4.9-3.9l-5.9-2.9l-3.2-.2l.9-2.9l-2.9-1.3l-2.7-2l-3.6,.4l-2.6-1.2l-2.9-.1l-.7,1.9l-3.2-1.7l-3.2-1.8l-3.9-.1l-1.2-2.5l-4.6-.9l-3.3,1l-3.7-1.6l-2.5-2.9l-1.6-1.2l1.7-3.4l-1.5-1.4l-.2-2.7l1.9-1l.1-3.1l2.7-.7l2.5-2.3l1.4-3.4l3.7-2.9l.7-3.1l1.8-.8l.7-2.3l5.6-.4l7.5-.9l26.5-3l7.8-1l6.1,1.2l2.9,2.2z"/>
  <path id="GA" d="M681.6,339.1l-8.9,1.1l-5.1,.8l-2.6,3.9l-1.1,4l-2.8,5.7l-2.3,2.9l-2.1,4.9l-3.5,4.7l-2.7,5.7l-1.4,4.6l-1.4,2.6l.2,5.9l1.4,3.6l-.6,4.7l1.8,4l-.7,2.1l1.9,1.3l-.1,3.4l-1.9,3.7l.3,1.9l2.1,1.8l-.7,3.5l1.7,2.9l1.5,.8l.6,2.9l2.7,4.1l2.5,.6l.8,2l-2.9-2.2l-6.1-1.2l-10.1,1l-.4-3.2l-2.5-4.5l-2.5-5.2l-4.7-3.5l-1.6-2.9l-2.7-2.1l-1.3-3l-.2-6.9l-3-5l.7-2.7l-1.5-2l-.5-3.3l-1.3-3.3l1.7-3.3l1.5-7.4l2.9-5.1l.7-4l2.7-3.8l.3-2.9l1.1-2.2l-.6-1.9l1.1-.4l.2-2.2l2.9-3.7l1.9-.3l.7-2.9l-.7-1.9l1.3-.6l-.5-3.9l1.3-.8l28.7-3.5l9.6-.7l2.9,1.7l2.9,9.7z"/>
  <path id="IA" d="M549.9,218.9l2.6,2.2l1.2,2.3l2.5,.8l1.9-.5l2.5,1.3l-.1,3.5l-.8,1.9l-.3,2.5l-2.2,1.5l-1.9,2.1l-3.3,.8l-.3,2.4l1.1,1.9l.1,2.4l-.9,1.8l-1.9,.4l-.7,1.3l-.3,1.5l-2.2,1.3l-.7,2.1l-2,1.7l-1.9-.3l-2.5,1l-1.7-.4l-44.5,1.1l-24.5-.2l-.9-2l-1.4-3l.2-3l-1.9-3.7l-.5-3.1l-2-2.7l-.2-2l-2.7-4.6l-.5-2.9l1.2-2.9l1.5-2.9l-.5-2.4l-1.9-1.8l-.5-2.7l2-3.7l.5-3.7l.6-.6l68.1,1.4l2.6,2.4l1.8,3l2.9,1.1l.7,1.3l2.2,.3l1.1,1.9l3.7,1l1.1,2.7z"/>
  <path id="ID" d="M195.9,195.8l-4.7-1.1l-1.9-1.2l-.2-1.7l-3.3-3l-.8-3.7l-2.3-1.3l-2.1-3l-.8-3.8l-2.7-3.2l1.4-5.4l2.1-2.2l.1-1.5l-1.3-2.7l-3.2-1.9l-1.3,.3l-.5-2.9l1.7-4.1l-.1-2.3l2.9-3.8l.3-6.1l-.8-1.1l.9-4.7l2.7-3.3l.6-3.7l-.2-3.5l1.7-2.1l.8,1.1l2.1,.4l1.9,1.7l1.3-.1l2.1,1.2l3.2,3.3l2.9,1.5l1.5,1.7l1.4,3.3l3.3,2.1l2.3,2.5l.1,2.3l2.1,1.4l-.5,5.5l.5,4.4l1.2,2l-.6,2.4l1.7,3.2l.2,1.9l1.5,3l-.1,2.3l2.9,4.2l-1.3,3.7l.7,1.9l-.8,3.2l.7,2.4l-1.6,1.6l.2,1.9l-1.6,.7l-2.1,5.2l.2,3l-1.4,.1l-2.1,2.5l.2,2.9l-1.9,4.3l-17-3.9l-17.1-4.7l4.7-20.1z"/>
  <path id="IL" d="M597,240.1l.1-2.4l-.6-2.3l1.1-2.1l1.6-1.2l.5-2.9l-1.9-1.9l-.8-2.3l.4-3.9l2.4-3.5l-.4-2.6l-1.2-4.2l1.4-1.3l.1-2.4l-1.4-1l.2-1.9l-8.7-.4l-25.6-1.1l-.5,2.1l-2.5,2.3l-.7,2l.5,3l-1.1,2.3l.3,2l-1.3,2.9l-.4,3.2l.8,1.3l-.1,2.9l-1.6,1.7l-1.1,3.9l1.6,5.4l5.3,5.4l.2,2.3l-2.7,1.9l-.7,2.9l.7,5.3l3.5,6.8l5.4,4.6l4.9,2.1l.6,2.9l-.8,5.7l1.1,2.5l-.1,2.3l-1.6,2.1l-.6,2.7l1.4,2l7.7,3.4l3.2,.3l1.5-1.9l2.3-.4l.4-2.4l2.3-2.5l1.5-5.7l4.5-4.2l1.1-3.1l-.1-2.9l-1.7-2.1l.1-4.4l1.2-1.6l.3-3.9l-1.9-4.2l-.4-7.2l1.7-3.5l-.2-1.7l-2.5-2.2l-.5-1.7l.6-4.7l-1-2.9z"/>
  <path id="IN" d="M621.9,238.8l.4,3.9l2,2.8l-.4,1.9l-1.9,1.6l-.7,2.8l.7,2.6l.9,5.3l-1.9,2.8l1.7,2.8l-.3,3.4l1.9,2.1l-.3,4.2l-.7,7.6l-1.3,2.8l-2.5,2.3l.2,1.4l-2.7,1.7l-1,.1l-23.9,2.5l.4-2.8l-1.9-2.1l.1-3.9l-1.5-5.9l-2.5-2.8l.8-2.1l.3-4.1l-1.2-2.3l-3.2-.3l-7.7-3.4l-1.4-2l.6-2.7l1.6-2.1l.1-2.3l-1.1-2.5l.7-5.1l-.6-3.5l2.7-1.9l.7-2.9l-.2-2.3l-5-5l-1.7-5.7l1.1-4l.7-2l2.5-2.3l.5-2.4l30.1-2.4l3,.3l.8,3l2.8,3.3l-.1,3.3l2.5,2.2l-.4,4.6z"/>
  <path id="KS" d="M428.9,299.7l-71.9-2.3l-44.7-2.4l1.9-51.1l35.4,1.1l58,1.1l1.1,1.7l2.3,.7l.4,3.5l3.3,3l.9,5.2l3.4,3.4l.3,35.1z"/>
  <path id="KY" d="M673.3,313.9l-2.7-1.5l-4.2,1l-1.5,2.9l-3.6,.9l-3.9-.8l-6.9,3.5l-.5,2.9l-2.7,.2l-4.7-1.6l-2.2,1.9l-.6,2.9l-2.1,1l-15.1,1.6l-16.9,1.5l-9.3,.5l-3.5-2.8l-3,2.4l-5.9,.2l-1.5,2.2l-3.5-3.5l-3.6,.9l-.8-4.3l-3.6-2.9l2.5-1.7l2.7-4.2l4.5-4.2l4.7-3.2l-1-3.9l3.8-1.8l7.1-.1l2.9-2.6l4.7-.1l4.9,1.7l2.7-2.1l3.7-1.5l.9-2.3l1.9-.4l3.2,1.5l2.1-1.2l6.9,.2l2.5,1.1l2.5,3.2l3.5,.5l4.2,2.2l3.4-.5l2.5-2.1l4.4,.8l2.7,1.5l5.2-.4l4.5-1.7l.8,4.5l2.8,1.1z"/>
  <path id="LA" d="M566.9,438.4l-18.3,1.1l.9-4.7l-1.5-3.7l1.5-4.7l2.1-2.2l-.5-4.9l-3.1-1.8l-3.7,.5l-1.7-1.1l-2.3,2.3l-1.2-.5l-2.2,1.2l-1.7-2.5l-3.5,1.6l-1.5,1.9l.3,3.1l-1.8,1.9l-.7,3.3l.5,2.8l-2.5,1.5l.7,3.7l-26.3,.4l.6-4.7l-3.9-6.5l-1.5-4.4l2.3-2.3l-.9-4.3l-3.7-3l-.5-7.7l2.6-1.7l41.3-1l4.3-.2l-.3,3.7l2.5,3.7l-.2,3.1l3.7,1.3l-.5,6l.5,3.4l-.5,10.7l2.5-.1l2.1-3.4l3.1-1.6l1.5,1.7l-.6,2.8l3.3,1.5l1.1,2.1z"/>
  <path id="MA" d="M879.2,180.3l-.7,1.8l-2.5-.4l-.6-1.3l1.7-.8l2.1,.7zm-6.9,3l-1.7,.7l-.4-1.1l-.2-1.7l1.8-.3l.5,2.4zm-15-2.2l2.6-1.1l.6,.8l3.6-1.5l1.2,2.7l2.3,1.9l4.3-.4l2.3-2.9l.7,2.7l-2.1,1l.8,2.3l-1.2,.2l-3.3-1.7l-4,.1l-5.9-1.7l-1.9,1.1zm6.3,6.9l1.1,1.9l1.4-.6l.3-1.6l-1.1-.7l-1.7,1zm4.8,2.4l1.5,2.1l-1.4,1.2l-1.6-1.9l1.5-1.4zm-35.6-18.3l-.7-3.7l1.9-.9l1.5,1.3l2.9-.6l6.4,3.3l6.5-.8l2.1,2.8l-4.9,2.1l-.8,1.9l-3.5-.3l-1.1-3.5l-1.9-.9l-7.7,1.7l-.7-2.4z"/>
  <path id="MD" d="M788.8,249.5l-4.8,1.5l-5.4,1.2l-1.2-4.9l-2.7-1.2l-2.5,1.7l-2.5,2.4l-1.7-.6l-.2-2.8l-2.7,3.7l-1.5,3.8l-3.1,3.4l-2.9,.2l-1.9,2.7l-5.3-.1l-5.9,3.3l-2.5,3.5l-.9,2.5l-4.5-.6l.6-2.1l-22.9,4.7l.5-4.3l2.3-4.1l1.3-2.3l1.5,1.4l2.5-.3l2.5-2.7l1.9-.8l1.7-2.3l2.3-.6l3.9-3.1l3-3.9l1.9,.4l1.3-1.5l4.3,.1l.5-2.9l3.2-2.3l1.9-2l-.3-6.7l5.7-1.3l12.9-3.3l.9,4.4l2.5,1.3l.5,7.2l3.6,2.1l1.4,1.6l3.5-3.6l2.7,.8l3.4,2.9l3.4,3.4l1.3,4.9l3.7,1.4z"/>
  <path id="ME" d="M885,91.9l1.8,2.9l2.2,5.1l-1.2,5.3l-2.3,4.5l-.3,3.1l-1.5-.5l-1.6,2.9l-2.9,.4l-.6-2.4l1.4-3.7l-.6-3.2l.8-3.3l-.9-3.1l-2.1,2l-1.1-.2l-.5,1.9l.9,6l-3.4,2.5l-1.8,2.2l.1,2.5l-1.9,4l-3.9,5.3l-2.1,.2l-1.5,1.7l.1,2.6l-2.2,3.4l-1.9-.5l-1.7,2.3l-.6,2.2l1.9,1.8l-.6,1.6l-1.9-1.9l-1.9,.5l.8-2.3l-.9-1.9l-.8,2.4l-1,.4l-.4-3l1.5-1.9l.8-3.4l2.5-2.9l1.9-4.4l-.1-2.4l2.7-3.7l-.8-5.6l-1.5-.9l.5-1.1l-.3-6.2l-3.2-4l-.5-3.9l1.5-4.2l-1.7-4.9l3.3-.4l1.1-2.7l2.1-1.9l2.1,3l2.3,.9l2.1-2.2l1.8-1l4.3,1l1.3,2.6l2.3-.4l4.8,1.7l2.1,.1l.9-.9l2.7,.3l2.5,5.4l2.3,5.9z"/>
  <path id="MI" d="M615.9,137l1-1.8l2.1-1.6l3.9-1.9l2.1-.4l.6,1.6l-3.5,2.9l-2.5,2.9l-2.2,.3l-.6-.7l-.9-1.3zm28.2,8.9l1.9-1.4l2.2-2.9l1.3-3.6l-1-3.7l-1.8-1.6l-2.9-1l-.9-3l-2.4-4.6l-1.7-2.7l-2.9-1.7l-3.7-.7l-.5-2.7l1.3-1.7l.1-2.1l1.3-2.5l-1.1-3.7l.5-1.3l2.2-.1l1.5-1.3l.1-3.1l1.1-.4l2.3,1.9l3.5,1.9l5.1,.6l2.5-.6l5.1,1.7l3.9,.4l1.5-.8l3.3-1l.9,1.5l-.5,3.1l1.1,1.3l.3,3l-2.1,4.2l-1.3,1.7l.9,3.5l1.4,1l.3,3.1l-1,2.5l.9,4.9l3.1,4.4l1.1,3.8l-.5,2.6l.5,3.7l-1,3.9l1.3,2l-.8,1.7l1.5,3.9l-.5,2.2l.8,1.5l-.8,1.5l-.3,2l-1.1,1.4l-1.7,.6l-.1-1.8l-1.1-1.2l.5-2.9l.9-1.2l-.9-1.6l-1.2,.5l-1.8,3.5l-1.5-.4l-2.6,1.7l-2.6-1l-3.7-2l-2.9-2.4l-5.9-2.1l-5.2-3.2l.9-2.7l1.9-.4l.2-1.4l-1.3-1.3l-.4-2.3l1.3-2.7l-.8-.9l-.7-4l-2.4-.9l-1.3-1.6l.5-1.2l1.7-.3l-.4-2.6zm-30.2-18l2.5,1l2.3,1.6l3.7,4.7l4.2,1.9l.6,3.9l-.5,2.4l.5,1.5l-.3,2.4l-2.9-.2l-.3-2.9l-2.9-1.5l-2.9-2.5l-3.5-4.7l-1.4-4.9l.9-2.7zm-32.1,58.3l.8-5.9l2.1-4.4l-1.3-5.9l.9-2.3l.2-4.6l2.5-3.2l.3-3.9l1.5-2.7l-1.9-3.9l.3-2.3l1-1.9l-1-3l-2.9-4.8l.4-2l3.7-4.4l3.3-1.5l.8-1.7l5.2-2.5l1.5,.3l.2,2.5l2.2,1.5l2.3-.8l3.9,.3l.9,1.7l-2.9,1.8l-2.1,.3l-1.7,2l-2.5,.6l-.8,2.6l1.2,1.5l-1.3,1l.4,2.9l3.3,1.9l1.3,2.5l-.5,1.3l.2,3.1l-2.5-.4l-4.5,1l.1,8l4,3.1l1.3,.3l5.6,3.7l3.5,3.9l2.3,1.5l1.5,2.6l3.4,1.1l2.9,2.9l4.6,1.9l1,1.6l-.5,.7l-7.2-.4l-4.7-1.6l-7.6-.6l-5.3-1l-5.4,.6l-5.3,.2l-4.7-.5z"/>
  <path id="MN" d="M537.9,105.1l-.5,4.7l1.9,5.2l2.5,2.1l.2,9.9l1.1,1.8l-.2,3l-1.7,3.4l-1.7,3.2l.1,4l2.3,5.5l1.5,2.5l1.1,6.1l.3,7.7l-.4,1.9l-2.5,.6l-.4,2.9l.3,3.3l2.9,3.5l1.2,6.9l1.4,2l-.2,1.8l-68.1-1.4l-.1-16.9l-1.7-2.9l-2.7-2.1l-1.3-3.7l-1.9-.6l-.4-2.5l-3.7-3.7l-.2-7.1l-2.5-.6l-1.2-3.7l1.3-2.7l1.9-.6l.4-5.1l.6-1.6l2.5,1.1l1.9,.4l.2-7.7l2.3-1.4l.8-4.4l.2-4.7l1.7-2.9l-1.7-5l-.4-8.2l2.3-2.1l2.1-1l2.9,2.3l3.3,1l4.6,.8l3.1,.2l1,.9l7.2,.4l.5-3l2.9-.3l5.5,3l3.1,.6l.6,2.5l3.2,1.9l2.6,.6l1.2,3.6l2.6,.6l1.5,.3l.2,2.3l2.9,.4l2.2-2.6l1.7-.2l.7,1.6z"/>
  <path id="MO" d="M555.7,274.7l-2.3-2.8l-1.1-2l-44.6,.7l-29,.2l-.3-35.1l-3.4-3.4l-.9-5.2l-3.3-3l-.4-3.5l-2.3-.7l-.9-1.5l24.5,.2l44.5-1.1l-.4,2.7l1.1,2.1l2.3,1.6l2.1,2.5l3.9-.4l1.1-1.3l1.7,.4l.2,2.4l3.9,3.1l.7,5.7l-.4,2l2.6,3.8l-.4,1.9l-2.6,3.2l-1.5,3.3l-.4,2.5l1.9,3.6l2.7,2.5l1.3,6l4.1,4.7l-.3,2.9l-3.4,2.1l-.6,2.6l.4,1.9z"/>
  <path id="MS" d="M606.9,372.9l-37.7,3.6l-.7,1.1l1.7,3.9l-1.1,3.3l-.3,3.7l-1.9,2.7l-2.2,5.9l-.8,4l-.2,5.9l.5,16.2l-1.1,10.3l-.4,3.7l-1,4.9l-3.3-1.5l1.5-3.4l-1.5-1.7l-3.1,1.6l-2.1,3.4l-2.5,.1l.5-11.3l-.5-2.8l.7-3.3l1.8-1.9l-.3-3.1l1.5-1.9l3.5-1.6l1.7,2.5l2.2-1.2l1.2,.5l2.3-2.3l1.7,1.1l3.7-.5l3.1,1.8l.5,4.9l-2.1,2.2l-1.5,4.7l1.5,3.7l-.9,4.7l26.3-.4l-.7-3.7l2.5-1.5l-.5-2.8l1.5-7.3l2.3-2.2l-1.3-3.3l.9-3.3l-1.5-2.3l-.9-3.8l2.9-4.2l-.5-3.3l-1.8-1.1l-.5-2.3l-3.1-3.5l-.3-5.2z"/>
  <path id="MT" d="M308.1,118.7l.9,7.9l1.7,3.8l-.5,3.1l1.3,2.8l.2,2.9l1.9,2.4l-.6,3.1l-1.7,1.1l-.7,1.3l.5,1.9l1.5,2l.3,1.7l.8,2.2l-.1,2.7l1.5,4.1l.5,2.7l-.7,3.3l.4,2.3l-1.7,2l.5,3.7l-67.2-4.7l-50.2-5.2l4.7-44.8l45.9,6.7l64.8,6.1z"/>
  <path id="NC" d="M781.2,327.9l-1.9,6.7l-4.6,8.4l-3.1,3.9l-1.3,4.2l-3.2,3l-2.6,1.9l-3.7,4.9l-5.4,4.7l-1.7,.6l-.5,1.2l-1.5,.5l-2.7,.4l-2.5,2.4l-2.7,3l-3.3,.5l-2.9,1.5l-4,.5l-.5-3.9l-.7,.8l-2.9,0l-4.7,2.6l-3.3-1.2l-2,1l-3.5-.8l-3.2,2l-4.2,.3l-2.6,.1l-1.9,1.2l-.7-1l-2.7,2.3l-.6-.6l1.6-3.6l3.5-2.1l.5-1.7l-1.9-1.7l-1.5,.7l-.8-1.9l-.4-3.4l2.8-1.1l2.6-3.5l2.9-3.7l4.7-3.4l1.9-1.2l5.9-2.5l4.2-.6l2.6-2l3.1,.3l2.7-1.3l.8-3.5l4.5-1.5l3.1-2l4.5-1l2.7-.4l1.2-1.7l1.7-1.7l.1-3.9l2.5-1.3l1.7-.3l2-3.5l2.1,.2l8.5,1.9l22.9-4.7l21-5.6l6.7-1.1z"/>
  <path id="ND" d="M461.2,104.9l-.3,11.9l-1.5,8.1l.2,5.7l.8,8.2l-49.9-1.7l-34.9-2.3l.9-17.7l.9-24.6l42.8,1.4l41.1-.9z"/>
  <path id="NE" d="M416.4,232.6l-58-1.1l-35.4-1.1l3.5-35.9l41.9,2.5l52.2,1.3l-.1,2.1l1.5,3.9l3.2,4.5l4.1,2.9l4.2,.2l2.4,1.7l4.2,.2l1.7,2l-.8,5.1l-.4,5.9l-1.7,4l-.4,2.8l-22-1.1z"/>
  <path id="NH" d="M843.6,141.5l1.3-1l.5-3.3l-1.3-4.8l2.5-4.6l-1.5-3.4l.9-3.2l-.5-2.5l-.7-4.6l.7-2.5l-.5-2l.6-4.6l-1.2-4.7l1-2.7l-1.7-4.2l.5-2.5l-.5-2.9l1.5-2.7l-1.1-5.3l-.2-2.7l-1.7-1.9l.3-5.2l-1.2,.4l-.4,2.5l-1.4,1l.5,3.3l-.6,1.5l.6,3.4l-1.7,2.3l-.6,3.6l.2,6.9l-1.8,2.5l.3,2.2l-1.4,4.9l-2.1,3.6l.4,1l-.9,6.7l.1,5.3l.8,6.9l.8,4.9l-.1,4.9l1.8,1.7l5.9-1.4l1.6,3.6z"/>
  <path id="NJ" d="M797.6,225.1l-.7,1.7l1,3.9l2.3,2l-.2,4.2l-2.3,2.4l-1.6,2.9l-.5,2.8l.2,2.1l2.1,2.8l2.5,5.3l2.3,2.7l2.3,1.2l.6,3.2l-1.1,3.7l-2.6,.9l-.9,3.6l-1.9,1.7l-1.3-.7l-1.9-4.9l-2.1-3.3l.2-2l1.7-1.3l.4-3.5l-2.1-3.5l.2-3.3l-1.4-3.1l.3-5.5l1.3-2.4l.7-3.9l-.5-3.5l.8-3.8l1.2-.8l.5-2.8l-1.9-2.7l.9-1.9l4.4-1.2l2.7,1.6l-.4,3.6z"/>
  <path id="NM" d="M296.8,343.5l-5-1l-2,0l.3,4.7l-47.9-5.3l-1.9,15.1l-3.7,33.9l-3.9,25.4l13.6,2.6l24,3.9l35.7,5l-.9-12.6l.8-5.9l-10.9-68.7l.8-9.7l.1-6.5z"/>
  <path id="NV" d="M161.1,299.8l-21.9-32.9l18.1-47.9l3.9-5l-4.6-5.5l-.3-3.8l3.9-6.9l.5-6.9l1.3-2.7l-1.5-4.2l1.1-4.2l1.7-3.2l-1.3-6.3l17.1,4.7l17,3.9l-9.4,44.3l-7.5,36l-6.9,34.2l-11.1,6.4z"/>
  <path id="NY" d="M825.9,177.1l-1.6,2.2l-2.1,1.2l-2.3,3.6l-2.8,3l-1.1-.3l-1.4,1.5l-4.7,2.7l-4.3,1.7l-6.3,1.7l-7.2,1.8l-6.4,.7l-3.5-.2l-3.1-3.3l-1.5,1.3l-2.3,.4l-2.5-2.1l-4.6-2.7l.5-3.8l1.7-2.7l.4-5.7l-1.2-.8l-.6-3.7l-2.2-1.3l-2.2-4.3l3-2.6l2-2.9l4.7-3l4-1.2l5.5-1l11.9-2l4.7,1l6.2-.7l8.2-2.1l6-2.2l3.6,.3l-.6,1.9l-1.5,4.2l.8,2.6l4.2,2.8l3.2,.2l3.2,4.1l2.2,.7l.9,2.7l-.1,1.6l-2.7,2l-1.8-.5l-1.6,1.9l.9,2.5zm-45.1,47.6l1.5-3l2.5-2.9l2.7-1.7l1.4,.7l-.7,2.2l-2.3,2.5l-3.5,3.4l-1.6-1.2zm34.3-37.4l1.9,2.4l1.5-.5l1.3,2.7l3.7,1l2.3-.8l2.3,1.2l-1.7,1.9l.6,2.3l-.5,1.5l-.8,.5l.1,2l-1.4,3.2l-2,3.7l-.9-.5l.5-4.9l-1.1-2l.5-3l-2.5-3.3l-2.1-.3l-2.7-2.1l-1.9,.7l-.1-2.9l2.1-.8l1-2.2l-.1-.8z"/>
  <path id="OH" d="M695.9,245.9l-2.5,1.9l-1.4,2.7l-3.1,3.9l-1.5,4.7l-.5,2.8l2.1,4.7l-2.8,3.8l.4,2l-1.7,.4l-2.5,2.7l-1.5,.3l-1.9,2.3l-1.1,2.9l-2.8-1.1l-.8-4.5l-4.5,1.7l-5.2,.4l-2.7-1.5l-4.4-.8l-2.5,2.1l-3.4,.5l-4.2-2.2l-3.5-.5l-2.5-3.2l-2.5-1.1l-6.9-.2l-2.1,1.2l-3.2-1.5l-1.9,.4l-.9,2.3l-3.7,1.5l-2.7,2.1l-4.9-1.7l-4.7,.1l-2.9,2.6l-7.1,.1l-3.8,1.8l.4-5.7l2.1-2.1l.5-2.3l1.4-2.5l.6-3.5l-1.5-3.5l1.6-4l-.3-3l1.5-3l-2.1-3.9l.3-3.9l1.6-1.2l23.9-2.5l1-.1l2.7-1.7l-.2-1.4l2.5-2.3l1.3-2.8l.7-7.6l.3-4.2l-1.9-2.1l.3-3.4l-1.7-2.8l1.9-2.8l-.9-5.3l-.7-2.6l.7-2.8l1.9-1.6l.4-1.9l-2-2.8l-.4-3.9l11.7-1.8l31.7-4.5l6.3-.6l.7,3.4l1.7,4.7l2.4,3l3.1,.3l1.3,2.5l2.5,.2l1.1,2.9l4.6,4.5l-.3,11l.2,2.5l1.7,1.7l.1,4l-.8,5.2l.6,2.1l1.9,1.4z"/>
  <path id="OK" d="M428.5,334.8l-29.8-1l-1.9,22.9l-2.6-1.9l-2.5,.4l-1.8-1.5l-3.1,1.9l-2.7-.1l-1.6-1.7l-3.6,1.3l-2.7-1.3l-2.3,.9l-2.3-1l-3.1,2l-2.3-.9l-2.4,2.1l-2.9-1.6l-2.2,.8l-3.1-1.7l-3.2,1.5l-3.5-1.3l-3.2,1.2l-2.1-2.5l-2.6,.7l-2.7-1.7l-2.1,1.5l-2.9-1l.5-16.9l-1.4-11.7l45.6,.5l45.8-.4l1.1,1.7l2.3,.7l.4,3.5l3.3,3l.9,5.2z"/>
  <path id="OR" d="M141.9,183.9l-4.6-2.2l-4.3-.4l-2.1-1.3l-4.5,.8l-6.1-1.7l-4.3-.3l-3.8,1.5l-6.9,.1l-3.7-2.2l-.8-4.5l-5.4-4.3l-2.2-3.7l.3-2.9l-2.6-2.7l3.9-8.6l2.9-3.9l1-4.9l3.7-5.5l3-2.6l-.6-4l2.5-4.7l.2-3l2.4,1.1l4.3,3.2l2.1,.2l3.7,1.8l5.3,.9l2.7,1.9l3.5,.6l3.7-.6l2.7,.5l3.4-.1l.2,2.2l.7,5.9l.8,1.4l44.5,11.5l-3.5,14.4l-5.7,22.8l-4.9,19l-8.9-2.3l-22.9-5.5z"/>
  <path id="PA" d="M780.6,220.8l-3.9,3.7l-3.9,4.3l-1.4,3.8l-1.7,1.2l-56.7,11.3l-11.7,1.8l-3-.3l-2.4-3l-1.7-4.7l-.7-3.4l3.2-2.3l1.1-2.3l1.7-2.9l1.9-1.4l1.5-2.5l1.1-.2l4.2-3.7l.7,1.9l2.3,1l1.5-1.3l11.3-3l10.9-2.5l7.7-2.1l9.2-1.1l18.8-4.9l7.1-2.1l3.7,1.3l5.4,22.9z"/>
  <path id="RI" d="M852,193.6l-2.3-1.3l-1.4-4.7l-.3-4.1l5.9-1.7l1.1,3.3l1.5,3.5l-1.3,1.9l-1.5,1.2l-1.7,1.9z"/>
  <path id="SC" d="M705,370.9l-2.5-1.3l-3.6-3.1l-3.5-.7l-5.1,2.7l-3.7,1.1l-3.7,4.2l-3.9,5.9l-3.7,2.2l-1.5,1.5l-1.7-1.1l-.5-2.2l-2.1,2.2l-.2,2.5l-2.9,3l-2.9-.7l-1.1,1.5l.7,2.9l-2.9,2l-.3,1.7l-1.5,1l-3.5-1.5l-1.7,3.2l-2.5-.6l-2.7-4.1l-.8-2l1.7-2l-.5-3.4l-1.4-3.3l.1-4.1l1.1-3.2l-1.9-4.2l.6-3.4l1.7-3.7l.4-4.9l1.9-2.7l.6-5.5l8.9-1.1l28.7-3.5l5.9,3.7l9.9,20.5z"/>
  <path id="SD" d="M411.4,166.4l-52.2-1.3l-41.9-2.5l1.7-28.4l1.5-19.3l49.9,1.7l34.9,2.3l-.8,8.2l-.2,5.7l1.5,8.1l2.5,4.7l3,2.1l.7,2.5l.3,4.2l-2.5,4.7l.2,3.3l1.3,2l-1.1,1.1l.4,2.7l-1.2-.1z"/>
  <path id="TN" d="M673.3,313.9l-2.8-1.1l-5.1,3.7l-10.7,.7l-16.9,1.5l-15.1,1.6l-27,2.7l-24.6,1.9l-4.6,.2l1.2-5.9l-2.9-3.1l1.3-5.9l48.8-.1l-.4,2l1.5,2.3l3.9-.4l1.1-1.3l1.7,.4l.2,2.4l3.9,3.1l.7,5.7l-.4,2l2.5,1.6l.5-2.7l-.1-7.9l4.7-3.4l1.9,.4l3.2,1.5l2.1-1.2l6.9,.2l2.5,1.1l2.5,3.2l3.5,.5l4.2,2.2l3.4-.5l2.5-2.1l4.4,.8l2.7,1.5l5.2-.4z"/>
  <path id="TX" d="M424.9,361.9l-1.4,11.7l-.5,16.9l2.9,1l2.1-1.5l2.7,1.7l2.6-.7l2.1,2.5l3.2-1.2l3.5,1.3l3.2-1.5l3.1,1.7l2.2-.8l2.9,1.6l2.4-2.1l2.3,.9l3.1-2l2.3,1l2.3-.9l2.7,1.3l3.6-1.3l1.6,1.7l2.7,.1l3.1-1.9l1.8,1.5l2.5-.4l2.6,1.9l1.9-22.9l29.8,1l-1.4,9.5l2.3,5.5l1.1,7.1l2.1,2.3l-.5,6l3.5,5.3l.9,5.6l2.1,2.1l1.1,4.4l2.1,4.4l-.3,2.9l1.7,5.5l1.5,3.8l3,2.9l.8,2.8l3.9,3.7l1.3,3.5l-.4,5.9l.3,3.7l.9,3l1.7,.4l1.5,4.8l4.4,2.8l-2.9,4.7l-.4,2.7l1.1,1.4l-.8,3.4l-.3,4.4l-2.3,2.1l.4,2.7l2.9,1.7l.3,3l-3.5,.2l-6.9,2.8l-1.1,2.7l1.1,1.1l-1.3,4l-2.9,2.9l-1.4,4.4l-2.1,.5l-3.2,3.5l-4,1.7l-4,.3l-4.5,1.9l-2.3,2.9l-.8,3.7l-4.2,5.9l-.5,3.2l-2.1,.2l-4.4,4.6l-.6,2.1l-4,.6l-3.8,3.3l-2.8,4.6l.3,1.5l-3.7,1.3l-3.5-.7l-2.7,1.2l-1.5,3.5l-1.4,1.1l-.5-1.3l-1.9,.9l-.6-1.9l1.1-2.9l-1.7-3.9l-.1-2.5l-1.7-3.1l-.9-4.1l-2.6-3.7l-1.3,.3l-2.1-1.1l-4.6,.3l-4.2-2.7l-1.7-3.7l-3.5-1.3l-7.2-5.1l-3.2-3.5l.1-2.3l-3.2-5l-3.7-1.1l-1.7-.2l-2.6-3.7l-5.4-1.3l-4.1-3.9l-1-3.2l-3.6-2.2l-.6-1.9l.2-3.5l-2.5-4.3l-2.2-1l-1.7-4.7l-3.7-1.2l-.5-2.5l-2.1-.4l-2.7-2.5l.9-6.5l2.5-5.4l-.2-2.2l1.5-5.8l1.7-2.5l.5-3.8l2.6-2.1l2.1-4.7l.9-4.9l2.7-1.9l3.1-2.1l.4-1.9l-1.9-5.7l-.7-6.6l-1.9-1l-1-3.9l-.8-5.2l-2.3-3z"/>
  <path id="UT" d="M248.7,281.6l-49.4-6l18.1-82.9l29.1,5.7l21.9,3.6l-6.9,34.1l-1.7,13.2l-6.2,46.7l-4.9-14.4z"/>
  <path id="VA" d="M762,278.5l1.9-3.9l3.5-4.3l2.2,.8l2.1-1.6l-.7-3.7l1.9-2.9l-.3-6.8l3.6-4.3l.8-3.7l-.2-3.6l5.5-2.2l2.4-3l1.5,5.5l4.4,1.9l-.4,5.3l4.2,3.4l-.2,2.7l3.9,4.4l-2.9,1.7l-.7,3.1l1.9,1l-.3,7.2l.9,4.7l-2,2.3l-2.9,5l-2.7-.1l-1.5,2.4l-1.3-.2l-1.8,3.2l-2.5-.8l-.4,1.4l-2.6,1.6l-4.6,5.2l2.3,2.9l-4.1,2.9l-2.7,1.3l-1.5-1.1l1.7-4.9l-.9-2.1l2.1-3l-1.1-2.5l-1.4-.1l-2.9,2.6l-3.5-.3l-2.4-2.9l-4,3.3l-.6,.3l-6.7,1.1l-21,5.6l4.5-.6l2.5-.3l1.7,.3l.7-1.3l3.3,.1l.8-2.8l3.3-3.2l.9-2.6l3.3-3.5l.2-3.5l.8-2.2l-2.3-2.9l1.3-4.1l2.9-3.6l5.3-.2z"/>
  <path id="VT" d="M824.6,151.4l-.2,4.6l1.1,5.2l-1.1,2.5l1.7,4.1l-.3,3l.6,5.4l-2,2.5l.1,2.3l-1.7,3.5l-18.7,4.9l-.9-2.7l1-6.6l-1.9-4l1.5-4.4l-.4-3.9l-1.9-6l.7-3.9l2.1-3.5l1.3-5l-.8-7.3l2-1.2l1.9-3.5l-1.1-3.4l1-2.9l4.9-1.3l12.2-4l-.1,5.7l1.7,3.2l-.4,4.8l.7,5.5z"/>
  <path id="WA" d="M172.6,51.7l1.9,5.7l2.7,3.2l.9,3l4.1,3.3l.8,3.1l3.7,4.6l-.2,7.9l-1.5,5.2l.3,3.6l.4,8.2l-44.5-11.5l-37.7-10.5l9.9-38.7l2.7,.9l4.2,.3l2.3-1.2l4.1,.2l2.9-.8l2.5,1.4l3.8,.3l1.8,.8l4.1-.3l6,2.9l2.6,.4l1.3,2.3l2.9,.9l4.1,2.5l2.9,.2l.5,.7l1.5,5.6l-.1,2.9l4.5,3.7l4.7-5.9l2.7-1.9l2.3,.2z"/>
  <path id="WI" d="M572.8,145l-.1,2.4l-2.5,3.6l-.6,4.5l-1.5,3.3l1.3,2.5l.1,4.7l.8,3.1l-.9,3.7l.6,3l-.4,2.7l-3.5,4.3l-1.1,5.3l.8,3.1l-.9,2.3l-.2,4.6l2,4.9l1.6,2.1l-1.1,2l-1.9,.3l-1.1-1.9l-2.2-.3l-.7-1.3l-2.9-1.1l-1.8-3l-2.6-2.4l.4-2.5l-1.2-1.3l.2-2.9l-3.1-1.1l-.8-3.1l-2.5-1.6l-.8-1.7l.8-2.5l-.6-3.3l-1.5-1.5l-.8-3l-1.7-2.3l.3-3l-1-3.3l-1.7,.8l-4.3-.6l-1.3-2.8l-1.5-.3l-2.9-2.5l-4.7-.9l-2.2-3.9l-1.7-7.1l1.4-2.1l1.4-4.1l-1.3-2.7l-.1-3l1.7-2.5l-.3-3.7l1.1-2.3l2.9,.7l4.1-1.4l6.5-2.5l2.7,.7l1.8,1.6l4.9,2l2.9-.4l4.2,1.6l.6-1l4.2,1.9l.9,4.7l1.9,3.6l-.5,5.1l1.2,2l2.9-.4l2.4-2.4l5.6-2.7z"/>
  <path id="WV" d="M721.7,265.3l2.5,5.7l3.1,.9l1.9,2.3l2.5-2.3l2.4-3.2l1.9,.6l3.1,3.5l1.5,3.2l-.9,2.4l2.5,4.5l-3.2,3.7l-2.3,3.7l-2.3,1.7l-1.3,3l-2.1,1.1l-1.9,3.1l.1,3l-4.6,1.1l-.8,3.3l-1.5,5.2l-3.7,0l-1.5-.8l-2.1-3l-2.5-3.5l1.5-2.8l-1.2-3.3l2.9-7.2l-4.2-6.2l1.9-4.8l-1.2-3.5l2.1-3.3l-2.9-5.4l.7-5.6l2.5-1.9l-1.9-1.4l-.6-2.1l.8-5.2l-.1-4l-1.7-1.7l-.2-2.5l.3-11l-4.6-4.5l-1.1-2.9l-2.5-.2l-1.3-2.5l-3.1-.3l6.7-.8l5.3,1.4l2.3-.1l-1,.8l-.3,2.9l3.3,2.7l3.7,1.4l1.7,3l-1.1,4.3l.6,2.5l3.6,3.3l1.5,3.9l-2.2,3.9l1.7,1.2l.1,2.5l3.4,2.3l1.1,1.5l-.3,2.1z"/>
  <path id="WY" d="M308.1,195.1l-4.3,47.2l-53-6.4l-44.6-1.2l4.9-57.9l50.2,5.2l47,3.6z"/>
</svg>

